<svg height="702" width="720" xmlns="http://www.w3.org/2000/svg">
<rect height="702" fill="#555" width="720"></rect>
<text fill="#7f7" font-family="Courier New" font-size="12" xml:space="preserve">
<tspan x="10" y="26">5 megabytes installed</tspan>
<tspan x="10" y="42"></tspan>
<tspan x="10" y="58">node_modules</tspan>
<tspan x="10" y="74">└─┬ bundle-collapser@1.2.1 </tspan>
<tspan x="10" y="90">  ├─┬ browser-pack@5.0.1 </tspan>
<tspan x="10" y="106">  │ ├─┬ combine-source-map@0.6.1 </tspan>
<tspan x="10" y="122">  │ │ ├── convert-source-map@1.1.3 </tspan>
<tspan x="10" y="138">  │ │ ├── inline-source-map@0.5.0 </tspan>
<tspan x="10" y="154">  │ │ ├── lodash.memoize@3.0.4 </tspan>
<tspan x="10" y="170">  │ │ └─┬ source-map@0.4.4 </tspan>
<tspan x="10" y="186">  │ │   └── amdefine@1.0.1 </tspan>
<tspan x="10" y="202">  │ ├── defined@1.0.0 </tspan>
<tspan x="10" y="218">  │ ├─┬ JSONStream@1.3.1 </tspan>
<tspan x="10" y="234">  │ │ ├── jsonparse@1.3.0 </tspan>
<tspan x="10" y="250">  │ │ └── through@2.3.8 </tspan>
<tspan x="10" y="266">  │ ├─┬ through2@1.1.1 </tspan>
<tspan x="10" y="282">  │ │ └─┬ readable-stream@1.1.14 </tspan>
<tspan x="10" y="298">  │ │   └── string_decoder@0.10.31 </tspan>
<tspan x="10" y="314">  │ └── umd@3.0.1 </tspan>
<tspan x="10" y="330">  ├─┬ browser-unpack@1.2.0 </tspan>
<tspan x="10" y="346">  │ └── acorn@4.0.11 </tspan>
<tspan x="10" y="362">  ├─┬ concat-stream@1.6.0 </tspan>
<tspan x="10" y="378">  │ ├── inherits@2.0.3 </tspan>
<tspan x="10" y="394">  │ ├─┬ readable-stream@2.2.9 </tspan>
<tspan x="10" y="410">  │ │ ├── buffer-shims@1.0.0 </tspan>
<tspan x="10" y="426">  │ │ ├── core-util-is@1.0.2 </tspan>
<tspan x="10" y="442">  │ │ ├── isarray@1.0.0 </tspan>
<tspan x="10" y="458">  │ │ ├── process-nextick-args@1.0.7 </tspan>
<tspan x="10" y="474">  │ │ ├── string_decoder@1.0.0 </tspan>
<tspan x="10" y="490">  │ │ └── util-deprecate@1.0.2 </tspan>
<tspan x="10" y="506">  │ └── typedarray@0.0.6 </tspan>
<tspan x="10" y="522">  ├─┬ falafel@1.2.0 </tspan>
<tspan x="10" y="538">  │ ├── acorn@1.2.2 </tspan>
<tspan x="10" y="554">  │ ├── foreach@2.0.5 </tspan>
<tspan x="10" y="570">  │ ├── isarray@0.0.1 </tspan>
<tspan x="10" y="586">  │ └── object-keys@1.0.11 </tspan>
<tspan x="10" y="602">  ├── minimist@1.2.0 </tspan>
<tspan x="10" y="618">  └─┬ through2@2.0.3 </tspan>
<tspan x="10" y="634">    ├─┬ readable-stream@2.2.9 </tspan>
<tspan x="10" y="650">    │ ├── isarray@1.0.0 </tspan>
<tspan x="10" y="666">    │ └── string_decoder@1.0.0 </tspan>
<tspan x="10" y="682">    └── xtend@4.0.1</tspan>
</text>
</svg>
